<svg version="1.1" id="Layer_1" xmlns="http://www.w3.org/2000/svg" xmlns:xlink="http://www.w3.org/1999/xlink" x="0px" y="0px"
	 width="100%" viewBox="0 0 400 400" enable-background="new 0 0 400 400" xml:space="preserve">
<path fill="#0D2137" opacity="1.000000" stroke="none" 
	d="
M173.000000,1.000003 
	C191.354233,1.000000 209.708450,1.000000 228.607224,1.378063 
	C229.822556,2.156849 230.445541,2.746915 231.171249,2.930085 
	C243.364044,6.007637 255.868011,8.165534 267.716858,12.234253 
	C304.310608,24.800007 334.630432,46.566063 358.503448,77.058517 
	C379.045624,103.296631 392.532135,132.759979 398.207153,165.712463 
	C398.640259,168.227371 400.046234,170.574753 401.000000,173.000000 
	C401.000000,191.354233 401.000000,209.708450 400.621948,228.607224 
	C399.843109,229.822571 399.252991,230.445587 399.069824,231.171326 
	C395.992279,243.364090 393.834351,255.868042 389.765686,267.716888 
	C377.200012,304.310669 355.433899,334.630463 324.941467,358.503418 
	C298.703400,379.045624 269.240051,392.532196 236.287537,398.207123 
	C233.772629,398.640228 231.425247,400.046234 229.000000,401.000000 
	C210.645767,401.000000 192.291550,401.000000 173.392776,400.621948 
	C172.177475,399.843140 171.554504,399.253082 170.828827,399.069916 
	C158.636032,395.992340 146.132095,393.834381 134.283234,389.765686 
	C97.689430,377.200012 67.369545,355.433990 43.496552,324.941528 
	C22.954330,298.703430 9.467779,269.240082 3.792864,236.287582 
	C3.359754,233.772644 1.953772,231.425262 1.000001,229.000000 
	C1.000000,210.645767 1.000000,192.291550 1.378064,173.392776 
	C2.156852,172.177429 2.746908,171.554428 2.930087,170.828705 
	C6.007640,158.635925 8.165565,146.131989 12.234282,134.283142 
	C24.800028,97.689392 46.566032,67.369507 77.058502,43.496548 
	C103.296623,22.954382 132.759918,9.467760 165.712448,3.792867 
	C168.227371,3.359762 170.574738,1.953774 173.000000,1.000003 
M74.261642,199.432281 
	C73.672623,201.215988 73.083595,202.999695 72.142365,205.350937 
	C71.443642,207.236130 70.744919,209.121323 69.618217,211.540359 
	C69.061020,213.017609 68.503830,214.494858 67.436127,216.411270 
	C66.402443,218.621292 65.368767,220.831314 63.953968,223.652145 
	C61.847622,227.642410 59.741276,231.632660 57.530811,235.820160 
	C67.337608,237.465683 69.029938,236.605988 72.522972,228.515686 
	C73.449677,226.375992 74.376373,224.236282 75.776085,221.670227 
	C76.200348,220.474701 76.624611,219.279175 77.573174,217.604370 
	C78.545013,215.094101 79.516853,212.583832 80.870598,209.548630 
	C81.295067,208.053986 81.719536,206.559341 82.617493,204.538361 
	C83.076370,202.691467 83.535240,200.844574 84.448601,198.411163 
	C84.882545,195.951370 85.316490,193.491592 85.939407,190.155823 
	C85.893700,187.778625 85.847992,185.401443 85.874039,182.279144 
	C83.981911,174.916779 81.365875,171.457840 76.542755,169.871567 
	C77.096748,172.903214 77.656799,175.967972 78.113441,179.897491 
	C78.064857,181.929199 78.016281,183.960907 77.593239,186.624268 
	C77.150558,188.759705 76.707870,190.895126 75.998611,193.747742 
	C75.560295,195.461258 75.121979,197.174774 74.261642,199.432281 
M67.890823,164.773499 
	C67.812332,164.731827 67.733841,164.690140 67.655350,164.648468 
	C67.782440,164.755981 67.909531,164.863495 67.954918,165.811066 
	C68.284386,168.867523 68.613861,171.923965 68.639748,175.684448 
	C68.022713,178.760483 67.405670,181.836533 66.362732,185.449097 
	C65.646637,187.641479 64.930542,189.833878 63.810699,192.640350 
	C63.094631,194.709183 62.378563,196.778000 61.226292,199.369751 
	C60.357151,201.523331 59.488010,203.676926 58.182350,206.329483 
	C57.196896,208.560638 56.211437,210.791794 54.820560,213.582245 
	C54.204544,215.032776 53.588524,216.483292 52.443729,218.382462 
	C51.375401,220.449097 50.300014,222.512115 49.240040,224.583038 
	C45.825439,231.254227 46.855846,233.307266 55.207561,235.562424 
	C56.808170,232.111588 58.452709,228.566010 60.639652,224.608093 
	C61.435863,222.742493 62.232075,220.876877 63.544277,218.572449 
	C64.419174,216.468506 65.294067,214.364578 66.684441,211.787506 
	C67.500351,209.593842 68.316261,207.400177 69.637550,204.690796 
	C70.454941,202.132812 71.272324,199.574844 72.578560,196.493256 
	C73.089935,194.344421 73.601311,192.195587 74.570511,189.434998 
	C74.928032,185.977844 75.285561,182.520676 75.815926,178.281158 
	C75.058495,172.767197 73.949692,167.461090 67.890823,164.773499 
M139.196106,176.143982 
	C135.932205,176.143982 132.668289,176.143982 129.210022,176.143982 
	C129.210022,188.250610 128.816055,199.723984 129.331116,211.156387 
	C129.765579,220.799744 135.321823,226.651474 144.319824,228.598114 
	C157.327225,231.412155 169.575851,225.714920 170.637604,214.751328 
	C171.859863,202.130219 170.921463,189.299850 170.921463,176.354645 
	C167.540741,176.354645 163.964996,176.354645 159.905777,176.354645 
	C159.905777,178.192703 159.906403,179.810455 159.905670,181.428192 
	C159.901749,190.081131 159.998001,198.735657 159.863266,207.386551 
	C159.743668,215.066605 156.490250,218.882431 150.395905,218.933228 
	C144.293732,218.984085 141.057877,215.124527 140.983948,207.424042 
	C140.899261,198.605469 141.000671,189.785110 140.920609,180.966446 
	C140.906387,179.397797 140.401566,177.833588 139.196106,176.143982 
M264.843658,220.617157 
	C259.396759,207.076950 253.859909,193.571747 248.569351,179.970718 
	C247.322845,176.766205 245.498459,175.700653 242.233917,176.090485 
	C238.993973,176.477371 235.540131,175.026657 233.750763,179.831589 
	C227.964310,195.369949 221.699631,210.730133 215.639343,226.166855 
	C215.444427,226.663315 215.468857,227.245911 215.394974,227.760880 
	C219.521393,227.760880 223.291580,227.760880 227.154694,227.760880 
	C228.136032,224.919708 228.833603,222.156479 230.066406,219.657272 
	C230.647263,218.479767 232.222351,217.086563 233.404724,217.031479 
	C239.197342,216.761566 245.009384,216.909103 250.800400,216.909103 
	C252.314026,220.696472 252.785248,225.681213 255.376450,227.325912 
	C258.161102,229.093399 262.936096,227.725128 267.229889,227.725128 
	C266.436981,225.424179 265.742828,223.409744 264.843658,220.617157 
M189.622147,175.872726 
	C181.481659,178.419037 177.537323,183.000870 177.294876,190.192398 
	C177.077560,196.638657 180.721237,201.477737 188.261780,204.638611 
	C191.322891,205.921783 194.747742,206.627594 197.418945,208.455536 
	C199.431076,209.832458 200.506317,212.578461 201.998596,214.715042 
	C199.829880,216.138550 197.671204,218.733017 195.490448,218.751709 
	C190.302368,218.796173 185.103851,217.622406 179.391861,216.872894 
	C178.614334,219.116135 177.608734,222.017395 176.519608,225.159622 
	C184.982651,229.323715 193.417160,230.048294 202.082886,228.168304 
	C209.258194,226.611664 213.233612,222.532288 214.026047,216.487869 
	C215.090637,208.367340 212.566849,203.108246 205.512329,199.630981 
	C201.652420,197.728378 197.360260,196.646896 193.650391,194.519577 
	C191.837051,193.479736 190.909180,190.895691 189.580536,189.010574 
	C191.464554,187.708481 193.330139,185.350891 195.236313,185.317596 
	C199.600052,185.241379 203.983627,186.300537 208.748642,186.951889 
	C209.644730,184.483170 210.686462,181.613144 211.767212,178.635651 
	C204.596725,175.138901 197.689590,174.152313 189.622147,175.872726 
M296.198517,199.224884 
	C292.805359,197.865585 289.400665,196.534286 286.022644,195.138367 
	C283.181702,193.964417 280.149200,192.652939 280.949402,188.814514 
	C281.758148,184.935074 285.277039,184.903000 288.174774,185.129547 
	C292.050720,185.432602 295.871185,186.445297 299.899200,187.187103 
	C300.894287,184.471786 301.912140,181.694427 303.010162,178.698227 
	C295.705658,174.940277 288.319733,173.970184 280.602631,175.940750 
	C273.448395,177.767609 269.316895,182.423599 268.759979,189.014252 
	C268.174744,195.940353 271.141052,200.852676 278.020050,203.959839 
	C281.500397,205.531876 285.143707,206.740494 288.643707,208.272461 
	C291.551086,209.545013 294.487701,211.683975 292.868591,214.993546 
	C291.918427,216.935715 288.578491,218.779327 286.307739,218.786316 
	C281.282959,218.801773 276.254486,217.629318 270.675446,216.865799 
	C269.892914,219.058182 268.858948,221.954865 267.741455,225.085663 
	C275.757111,229.323990 283.942505,229.888123 292.261841,228.424866 
	C300.174896,227.033035 304.191437,223.066269 305.231873,216.553452 
	C306.477661,208.755676 304.062225,203.886047 296.198517,199.224884 
M360.954651,201.503067 
	C355.977356,199.262527 350.822754,197.331421 346.109467,194.630264 
	C344.205383,193.539062 343.265930,190.764786 341.887482,188.756454 
	C343.829132,187.533630 345.761993,185.309296 347.714233,185.292175 
	C352.049408,185.254181 356.394348,186.322418 360.979034,186.974304 
	C361.893219,184.477844 362.908356,181.705643 364.004608,178.712051 
	C356.569336,174.833801 349.023163,173.952759 341.182281,176.030228 
	C334.385803,177.830978 330.343048,182.536011 329.770508,188.905807 
	C329.148254,195.828659 332.093079,200.801651 338.879059,203.911133 
	C341.889679,205.290665 345.071594,206.291824 348.113953,207.607681 
	C351.328766,208.998123 355.052979,210.329697 354.067566,214.905060 
	C353.139893,219.212585 349.274017,219.203568 346.031097,218.931595 
	C341.334198,218.537704 336.691589,217.495956 331.712555,216.679184 
	C330.818451,219.218430 329.798340,222.115555 328.809021,224.925247 
	C336.319214,228.975189 345.885834,230.125183 353.933441,228.329376 
	C359.676544,227.047806 364.344635,224.342087 365.847717,218.362869 
	C367.379120,212.270966 366.749176,206.428955 360.954651,201.503067 
M97.943336,257.290497 
	C101.885048,256.679230 105.814873,255.974136 109.770531,255.472931 
	C126.747070,253.321884 143.391083,253.004623 158.018875,264.653351 
	C157.724792,262.815521 157.252472,261.128784 156.458878,259.609894 
	C149.376587,246.054596 136.701065,240.048874 118.811432,242.642273 
	C106.328575,244.451889 94.025421,247.470184 81.570877,249.515533 
	C70.865891,251.273575 60.036346,252.598221 50.165276,245.137054 
	C50.246674,246.116882 50.187901,246.783859 50.368584,247.378021 
	C53.038479,256.157867 59.769859,260.961731 70.342239,260.438019 
	C79.285614,259.994995 88.177536,258.513123 97.943336,257.290497 
M63.346004,248.211395 
	C65.997925,248.284454 68.725143,248.796280 71.289009,248.356277 
	C83.877487,246.195923 96.415497,243.743698 108.985008,241.470139 
	C120.390205,239.407166 131.819839,238.374084 142.781006,243.322205 
	C146.697327,245.090134 150.223694,247.721832 154.229660,250.141449 
	C148.445999,235.545471 135.561523,226.953705 120.341568,228.732422 
	C108.021095,230.172272 95.896614,233.241348 83.655220,235.419235 
	C71.473610,237.586472 59.214931,242.796295 46.459183,234.076828 
	C48.992409,243.198013 54.830929,246.723007 63.346004,248.211395 
M106.545166,206.793243 
	C111.645706,206.793243 116.746239,206.793243 121.881790,206.793243 
	C121.881790,203.209366 121.881790,200.269028 121.881790,196.801575 
	C115.142090,196.801575 108.581070,196.801575 102.002968,196.801575 
	C102.002968,193.003204 102.002968,189.738754 102.002968,185.978210 
	C109.610458,185.978210 117.007080,185.978210 124.363510,185.978210 
	C124.363510,182.424286 124.363510,179.387894 124.363510,176.433594 
	C112.723663,176.433594 101.486961,176.433594 90.283722,176.433594 
	C90.283722,193.773422 90.283722,210.807556 90.283722,227.742844 
	C94.203453,227.742844 97.793594,227.742844 101.777794,227.742844 
	C101.777794,221.861908 101.950165,216.233536 101.708931,210.622971 
	C101.577866,207.574646 102.433334,206.226242 106.545166,206.793243 
M313.866150,176.125671 
	C313.016937,177.358047 311.474792,178.567459 311.433105,179.826599 
	C311.196350,186.976364 311.318176,194.138016 311.318115,201.295624 
	C311.318054,210.074371 311.318115,218.853119 311.318115,227.679169 
	C315.558472,227.679169 319.271271,227.679169 322.880432,227.679169 
	C322.880432,210.417725 322.880432,193.496185 322.880432,176.122955 
	C320.031525,176.122955 317.408722,176.122955 313.866150,176.125671 
z"/>
<path fill="#000000" opacity="1.000000" stroke="none" 
	d="
M172.531342,1.000003 
	C170.574738,1.953774 168.227371,3.359762 165.712448,3.792867 
	C132.759918,9.467760 103.296623,22.954382 77.058502,43.496548 
	C46.566032,67.369507 24.800028,97.689392 12.234282,134.283142 
	C8.165565,146.131989 6.007640,158.635925 2.930087,170.828705 
	C2.746908,171.554428 2.156852,172.177429 1.378064,172.924118 
	C1.000000,115.739647 1.000000,58.479294 1.000000,1.000000 
	C58.020706,1.000000 115.041695,1.000000 172.531342,1.000003 
z"/>
<path fill="#000000" opacity="1.000000" stroke="none" 
	d="
M229.468658,401.000000 
	C231.425247,400.046234 233.772629,398.640228 236.287537,398.207123 
	C269.240051,392.532196 298.703400,379.045624 324.941467,358.503418 
	C355.433899,334.630463 377.200012,304.310669 389.765686,267.716888 
	C393.834351,255.868042 395.992279,243.364090 399.069824,231.171326 
	C399.252991,230.445587 399.843109,229.822571 400.621948,229.075882 
	C401.000000,286.260345 401.000000,343.520721 401.000000,401.000000 
	C343.979279,401.000000 286.958313,401.000000 229.468658,401.000000 
z"/>
<path fill="#000000" opacity="1.000000" stroke="none" 
	d="
M1.000001,229.468658 
	C1.953772,231.425262 3.359754,233.772644 3.792864,236.287582 
	C9.467779,269.240082 22.954330,298.703430 43.496552,324.941528 
	C67.369545,355.433990 97.689430,377.200012 134.283234,389.765686 
	C146.132095,393.834381 158.636032,395.992340 170.828827,399.069916 
	C171.554504,399.253082 172.177475,399.843140 172.924118,400.621948 
	C115.739647,401.000000 58.479294,401.000000 1.000000,401.000000 
	C1.000000,343.979279 1.000000,286.958313 1.000001,229.468658 
z"/>
<path fill="#000000" opacity="1.000000" stroke="none" 
	d="
M401.000000,172.531342 
	C400.046234,170.574753 398.640259,168.227371 398.207153,165.712463 
	C392.532135,132.759979 379.045624,103.296631 358.503448,77.058517 
	C334.630432,46.566063 304.310608,24.800007 267.716858,12.234253 
	C255.868011,8.165534 243.364044,6.007637 231.171249,2.930085 
	C230.445541,2.746915 229.822556,2.156849 229.075882,1.378063 
	C286.260345,1.000000 343.520691,1.000000 401.000000,1.000000 
	C401.000000,58.020706 401.000000,115.041695 401.000000,172.531342 
z"/>
<path fill="#F8F9F9" opacity="1.000000" stroke="none" 
	d="
M139.659698,176.205658 
	C140.401566,177.833588 140.906387,179.397797 140.920609,180.966446 
	C141.000671,189.785110 140.899261,198.605469 140.983948,207.424042 
	C141.057877,215.124527 144.293732,218.984085 150.395905,218.933228 
	C156.490250,218.882431 159.743668,215.066605 159.863266,207.386551 
	C159.998001,198.735657 159.901749,190.081131 159.905670,181.428192 
	C159.906403,179.810455 159.905777,178.192703 159.905777,176.354645 
	C163.964996,176.354645 167.540741,176.354645 170.921463,176.354645 
	C170.921463,189.299850 171.859863,202.130219 170.637604,214.751328 
	C169.575851,225.714920 157.327225,231.412155 144.319824,228.598114 
	C135.321823,226.651474 129.765579,220.799744 129.331116,211.156387 
	C128.816055,199.723984 129.210022,188.250610 129.210022,176.143982 
	C132.668289,176.143982 135.932205,176.143982 139.659698,176.205658 
z"/>
<path fill="#FAFAFB" opacity="1.000000" stroke="none" 
	d="
M264.946167,221.006241 
	C265.742828,223.409744 266.436981,225.424179 267.229889,227.725128 
	C262.936096,227.725128 258.161102,229.093399 255.376450,227.325912 
	C252.785248,225.681213 252.314026,220.696472 250.800400,216.909103 
	C245.009384,216.909103 239.197342,216.761566 233.404724,217.031479 
	C232.222351,217.086563 230.647263,218.479767 230.066406,219.657272 
	C228.833603,222.156479 228.136032,224.919708 227.154694,227.760880 
	C223.291580,227.760880 219.521393,227.760880 215.394974,227.760880 
	C215.468857,227.245911 215.444427,226.663315 215.639343,226.166855 
	C221.699631,210.730133 227.964310,195.369949 233.750763,179.831589 
	C235.540131,175.026657 238.993973,176.477371 242.233917,176.090485 
	C245.498459,175.700653 247.322845,176.766205 248.569351,179.970718 
	C253.859909,193.571747 259.396759,207.076950 264.946167,221.006241 
M241.441650,207.540863 
	C243.520752,207.540863 245.599869,207.540863 248.355194,207.540863 
	C245.841248,200.935547 243.608475,195.068970 240.915558,187.993423 
	C238.205048,195.230194 236.029831,201.037750 233.594131,207.540787 
	C236.356430,207.540787 238.450867,207.540787 241.441650,207.540863 
z"/>
<path fill="#F9F9FA" opacity="1.000000" stroke="none" 
	d="
M190.028656,175.766815 
	C197.689590,174.152313 204.596725,175.138901 211.767212,178.635651 
	C210.686462,181.613144 209.644730,184.483170 208.748642,186.951889 
	C203.983627,186.300537 199.600052,185.241379 195.236313,185.317596 
	C193.330139,185.350891 191.464554,187.708481 189.580536,189.010574 
	C190.909180,190.895691 191.837051,193.479736 193.650391,194.519577 
	C197.360260,196.646896 201.652420,197.728378 205.512329,199.630981 
	C212.566849,203.108246 215.090637,208.367340 214.026047,216.487869 
	C213.233612,222.532288 209.258194,226.611664 202.082886,228.168304 
	C193.417160,230.048294 184.982651,229.323715 176.519608,225.159622 
	C177.608734,222.017395 178.614334,219.116135 179.391861,216.872894 
	C185.103851,217.622406 190.302368,218.796173 195.490448,218.751709 
	C197.671204,218.733017 199.829880,216.138550 201.998596,214.715042 
	C200.506317,212.578461 199.431076,209.832458 197.418945,208.455536 
	C194.747742,206.627594 191.322891,205.921783 188.261780,204.638611 
	C180.721237,201.477737 177.077560,196.638657 177.294876,190.192398 
	C177.537323,183.000870 181.481659,178.419037 190.028656,175.766815 
z"/>
<path fill="#F9F9FA" opacity="1.000000" stroke="none" 
	d="
M296.514099,199.419479 
	C304.062225,203.886047 306.477661,208.755676 305.231873,216.553452 
	C304.191437,223.066269 300.174896,227.033035 292.261841,228.424866 
	C283.942505,229.888123 275.757111,229.323990 267.741455,225.085663 
	C268.858948,221.954865 269.892914,219.058182 270.675446,216.865799 
	C276.254486,217.629318 281.282959,218.801773 286.307739,218.786316 
	C288.578491,218.779327 291.918427,216.935715 292.868591,214.993546 
	C294.487701,211.683975 291.551086,209.545013 288.643707,208.272461 
	C285.143707,206.740494 281.500397,205.531876 278.020050,203.959839 
	C271.141052,200.852676 268.174744,195.940353 268.759979,189.014252 
	C269.316895,182.423599 273.448395,177.767609 280.602631,175.940750 
	C288.319733,173.970184 295.705658,174.940277 303.010162,178.698227 
	C301.912140,181.694427 300.894287,184.471786 299.899200,187.187103 
	C295.871185,186.445297 292.050720,185.432602 288.174774,185.129547 
	C285.277039,184.903000 281.758148,184.935074 280.949402,188.814514 
	C280.149200,192.652939 283.181702,193.964417 286.022644,195.138367 
	C289.400665,196.534286 292.805359,197.865585 296.514099,199.419479 
z"/>
<path fill="#F9F9FA" opacity="1.000000" stroke="none" 
	d="
M361.238434,201.733841 
	C366.749176,206.428955 367.379120,212.270966 365.847717,218.362869 
	C364.344635,224.342087 359.676544,227.047806 353.933441,228.329376 
	C345.885834,230.125183 336.319214,228.975189 328.809021,224.925247 
	C329.798340,222.115555 330.818451,219.218430 331.712555,216.679184 
	C336.691589,217.495956 341.334198,218.537704 346.031097,218.931595 
	C349.274017,219.203568 353.139893,219.212585 354.067566,214.905060 
	C355.052979,210.329697 351.328766,208.998123 348.113953,207.607681 
	C345.071594,206.291824 341.889679,205.290665 338.879059,203.911133 
	C332.093079,200.801651 329.148254,195.828659 329.770508,188.905807 
	C330.343048,182.536011 334.385803,177.830978 341.182281,176.030228 
	C349.023163,173.952759 356.569336,174.833801 364.004608,178.712051 
	C362.908356,181.705643 361.893219,184.477844 360.979034,186.974304 
	C356.394348,186.322418 352.049408,185.254181 347.714233,185.292175 
	C345.761993,185.309296 343.829132,187.533630 341.887482,188.756439 
	C343.265930,190.764786 344.205383,193.539062 346.109467,194.630264 
	C350.822754,197.331421 355.977356,199.262527 361.238434,201.733841 
z"/>
<path fill="#F98B2B" opacity="1.000000" stroke="none" 
	d="
M97.517784,257.390747 
	C88.177536,258.513123 79.285614,259.994995 70.342239,260.438019 
	C59.769859,260.961731 53.038479,256.157867 50.368584,247.378021 
	C50.187901,246.783859 50.246674,246.116882 50.165276,245.137054 
	C60.036346,252.598221 70.865891,251.273575 81.570877,249.515533 
	C94.025421,247.470184 106.328575,244.451889 118.811432,242.642273 
	C136.701065,240.048874 149.376587,246.054596 156.458878,259.609894 
	C157.252472,261.128784 157.724792,262.815521 158.018875,264.653351 
	C143.391083,253.004623 126.747070,253.321884 109.770531,255.472931 
	C105.814873,255.974136 101.885048,256.679230 97.517784,257.390747 
z"/>
<path fill="#F98B2B" opacity="1.000000" stroke="none" 
	d="
M62.927074,248.149719 
	C54.830929,246.723007 48.992409,243.198013 46.459183,234.076828 
	C59.214931,242.796295 71.473610,237.586472 83.655220,235.419235 
	C95.896614,233.241348 108.021095,230.172272 120.341568,228.732422 
	C135.561523,226.953705 148.445999,235.545471 154.229660,250.141449 
	C150.223694,247.721832 146.697327,245.090134 142.781006,243.322205 
	C131.819839,238.374084 120.390205,239.407166 108.985008,241.470139 
	C96.415497,243.743698 83.877487,246.195923 71.289009,248.356277 
	C68.725143,248.796280 65.997925,248.284454 62.927074,248.149719 
z"/>
<path fill="#F9F9FA" opacity="1.000000" stroke="none" 
	d="
M106.051880,206.793274 
	C102.433334,206.226242 101.577866,207.574646 101.708931,210.622971 
	C101.950165,216.233536 101.777794,221.861908 101.777794,227.742844 
	C97.793594,227.742844 94.203453,227.742844 90.283722,227.742844 
	C90.283722,210.807556 90.283722,193.773422 90.283722,176.433594 
	C101.486961,176.433594 112.723663,176.433594 124.363510,176.433594 
	C124.363510,179.387894 124.363510,182.424286 124.363510,185.978210 
	C117.007080,185.978210 109.610458,185.978210 102.002968,185.978210 
	C102.002968,189.738754 102.002968,193.003204 102.002968,196.801575 
	C108.581070,196.801575 115.142090,196.801575 121.881790,196.801575 
	C121.881790,200.269028 121.881790,203.209366 121.881790,206.793243 
	C116.746239,206.793243 111.645706,206.793243 106.051880,206.793274 
z"/>
<path fill="#F6F7F7" opacity="1.000000" stroke="none" 
	d="
M314.326050,176.124313 
	C317.408722,176.122955 320.031525,176.122955 322.880432,176.122955 
	C322.880432,193.496185 322.880432,210.417725 322.880432,227.679169 
	C319.271271,227.679169 315.558472,227.679169 311.318115,227.679169 
	C311.318115,218.853119 311.318054,210.074371 311.318115,201.295624 
	C311.318176,194.138016 311.196350,186.976364 311.433105,179.826599 
	C311.474792,178.567459 313.016937,177.358047 314.326050,176.124313 
z"/>
<path fill="#BCBDBD" opacity="1.000000" stroke="none" 
	d="
M60.097252,225.020447 
	C58.452709,228.566010 56.808170,232.111588 55.207561,235.562424 
	C46.855846,233.307266 45.825439,231.254227 49.240040,224.583038 
	C50.300014,222.512115 51.375401,220.449097 52.859722,218.461487 
	C55.549561,220.700485 57.823406,222.860458 60.097252,225.020447 
z"/>
<path fill="#B7B8B9" opacity="1.000000" stroke="none" 
	d="
M71.993095,228.998184 
	C69.029938,236.605988 67.337608,237.465683 57.530811,235.820160 
	C59.741276,231.632660 61.847622,227.642410 64.458199,223.410721 
	C67.305984,225.112259 69.649536,227.055222 71.993095,228.998184 
z"/>
<path fill="#767677" opacity="1.000000" stroke="none" 
	d="
M75.643082,179.063522 
	C75.285561,182.520676 74.928032,185.977844 74.026947,189.595825 
	C71.251801,188.141953 69.020218,186.527252 66.788635,184.912567 
	C67.405670,181.836533 68.022713,178.760483 69.134171,175.382462 
	C71.633423,176.408157 73.638252,177.735840 75.643082,179.063522 
z"/>
<path fill="#A4A4A5" opacity="1.000000" stroke="none" 
	d="
M55.225986,213.022949 
	C56.211437,210.791794 57.196896,208.560638 58.768883,206.156921 
	C61.626602,208.076431 63.897785,210.168533 66.168961,212.260620 
	C65.294067,214.364578 64.419174,216.468506 62.987823,218.629990 
	C60.029575,216.799332 57.627785,214.911133 55.225986,213.022949 
z"/>
<path fill="#989899" opacity="1.000000" stroke="none" 
	d="
M66.426704,212.024063 
	C63.897785,210.168533 61.626602,208.076431 58.987144,205.907425 
	C59.488010,203.676926 60.357151,201.523331 61.808266,199.182129 
	C64.637550,201.065170 66.884857,203.135849 69.132172,205.206512 
	C68.316261,207.400177 67.500351,209.593842 66.426704,212.024063 
z"/>
<path fill="#ABACAC" opacity="1.000000" stroke="none" 
	d="
M72.258034,228.756927 
	C69.649536,227.055222 67.305984,225.112259 64.648758,223.105316 
	C65.368767,220.831314 66.402443,218.621292 67.987320,216.350525 
	C70.793365,218.225388 73.048218,220.160980 75.303070,222.096588 
	C74.376373,224.236282 73.449677,226.375992 72.258034,228.756927 
z"/>
<path fill="#8C8D8E" opacity="1.000000" stroke="none" 
	d="
M69.384857,204.948654 
	C66.884857,203.135849 64.637550,201.065170 62.026367,198.920670 
	C62.378563,196.778000 63.094631,194.709183 64.363914,192.341370 
	C67.307991,193.700531 69.698853,195.358704 72.089714,197.016861 
	C71.272324,199.574844 70.454941,202.132812 69.384857,204.948654 
z"/>
<path fill="#B0B0B1" opacity="1.000000" stroke="none" 
	d="
M55.023277,213.302597 
	C57.627785,214.911133 60.029575,216.799332 62.729828,218.849396 
	C62.232075,220.876877 61.435863,222.742493 60.368454,224.814270 
	C57.823406,222.860458 55.549561,220.700485 53.124107,218.237152 
	C53.588524,216.483292 54.204544,215.032776 55.023277,213.302597 
z"/>
<path fill="#979798" opacity="1.000000" stroke="none" 
	d="
M80.488693,210.073563 
	C79.516853,212.583832 78.545013,215.094101 77.145279,217.546753 
	C74.493652,215.328262 72.269920,213.167389 70.046188,211.006500 
	C70.744919,209.121323 71.443642,207.236130 72.702789,205.153687 
	C75.671700,206.662155 78.080193,208.367859 80.488693,210.073563 
z"/>
<path fill="#838384" opacity="1.000000" stroke="none" 
	d="
M72.334137,196.755066 
	C69.698853,195.358704 67.307991,193.700531 64.565796,192.034317 
	C64.930542,189.833878 65.646637,187.641479 66.575684,185.180832 
	C69.020218,186.527252 71.251801,188.141953 73.798035,189.901703 
	C73.601311,192.195587 73.089935,194.344421 72.334137,196.755066 
z"/>
<path fill="#7C7C7C" opacity="1.000000" stroke="none" 
	d="
M85.750435,191.031799 
	C85.316490,193.491592 84.882545,195.951370 83.930832,198.546814 
	C81.030441,196.798492 78.647812,194.914520 76.265182,193.030563 
	C76.707870,190.895126 77.150558,188.759705 78.113892,186.378174 
	C81.006508,187.765320 83.378471,189.398560 85.750435,191.031799 
z"/>
<path fill="#727273" opacity="1.000000" stroke="none" 
	d="
M85.844925,190.593811 
	C83.378471,189.398560 81.006508,187.765320 78.301117,186.062347 
	C78.016281,183.960907 78.064857,181.929199 78.508652,179.468933 
	C81.203323,180.368347 83.502800,181.696304 85.802277,183.024246 
	C85.847992,185.401443 85.893700,187.778625 85.844925,190.593811 
z"/>
<path fill="#656768" opacity="1.000000" stroke="none" 
	d="
M75.729507,178.672333 
	C73.638252,177.735840 71.633423,176.408157 69.285965,175.030457 
	C68.613861,171.923965 68.284386,168.867523 67.979851,165.404877 
	C68.004784,164.998688 67.978279,165.031342 67.978279,165.031342 
	C73.949692,167.461090 75.058495,172.767197 75.729507,178.672333 
z"/>
<path fill="#686869" opacity="1.000000" stroke="none" 
	d="
M85.838158,182.651703 
	C83.502800,181.696304 81.203323,180.368347 78.560349,179.036560 
	C77.656799,175.967972 77.096748,172.903214 76.542755,169.871567 
	C81.365875,171.457840 83.981911,174.916779 85.838158,182.651703 
z"/>
<path fill="#858686" opacity="1.000000" stroke="none" 
	d="
M76.131897,193.389160 
	C78.647812,194.914520 81.030441,196.798492 83.703590,198.840057 
	C83.535240,200.844574 83.076370,202.691467 82.070816,204.640106 
	C79.243988,202.790665 76.963821,200.839478 74.683662,198.888290 
	C75.121979,197.174774 75.560295,195.461258 76.131897,193.389160 
z"/>
<path fill="#8C8D8E" opacity="1.000000" stroke="none" 
	d="
M74.472656,199.160278 
	C76.963821,200.839478 79.243988,202.790665 81.834076,204.903275 
	C81.719536,206.559341 81.295067,208.053986 80.679642,209.811096 
	C78.080193,208.367859 75.671700,206.662155 72.878891,204.869919 
	C73.083595,202.999695 73.672623,201.215988 74.472656,199.160278 
z"/>
<path fill="#A1A2A2" opacity="1.000000" stroke="none" 
	d="
M69.832199,211.273438 
	C72.269920,213.167389 74.493652,215.328262 76.883125,217.786392 
	C76.624611,219.279175 76.200348,220.474701 75.539581,221.883408 
	C73.048218,220.160980 70.793365,218.225388 68.242569,216.130951 
	C68.503830,214.494858 69.061020,213.017609 69.832199,211.273438 
z"/>
<path fill="#656768" opacity="1.000000" stroke="none" 
	d="
M68.020706,164.984848 
	C67.909531,164.863495 67.782440,164.755981 67.655350,164.648468 
	C67.733841,164.690140 67.812332,164.731827 67.934555,164.902420 
	C67.978279,165.031342 68.004784,164.998688 68.020706,164.984848 
z"/>
<path fill="#223448" opacity="1.000000" stroke="none" 
	d="
M240.993484,207.540833 
	C238.450867,207.540787 236.356430,207.540787 233.594131,207.540787 
	C236.029831,201.037750 238.205048,195.230194 240.915558,187.993423 
	C243.608475,195.068970 245.841248,200.935547 248.355194,207.540863 
	C245.599869,207.540863 243.520752,207.540863 240.993484,207.540833 
z"/>
</svg>